<svg width="51" height="51" viewBox="0 0 51 51" fill="none" xmlns="http://www.w3.org/2000/svg">
<g clip-path="url(#clip0_1002_32274)">
<path d="M28.3529 50.6537H22.1029C20.6445 50.6537 18.9779 49.4037 18.9779 46.9037V42.5287C18.9779 40.4453 17.9362 38.5703 16.2695 37.112C12.5195 34.1953 10.6445 30.0287 10.6445 25.4453C10.8529 17.5286 17.3112 11.2786 25.0195 11.0703C28.9779 11.0703 32.7279 12.5286 35.4362 15.237C38.1445 17.9453 39.8112 21.6953 39.8112 25.6537C39.8112 30.0287 37.9362 34.1953 34.3945 36.9037C32.5195 38.362 31.4779 40.6537 31.4779 42.737V47.5287C31.4779 49.1953 30.0195 50.6537 28.3529 50.6537ZM25.2279 13.1536C18.5612 13.1536 12.9362 18.7786 12.7279 25.4453C12.7279 29.4037 14.3945 33.1537 17.5195 35.4453C19.8112 37.3203 21.0612 39.8203 21.0612 42.5287V46.9037C21.0612 47.3203 21.0612 48.5703 22.1029 48.5703H28.3529C28.9779 48.5703 29.3945 48.1537 29.3945 47.5287V42.737C29.3945 40.0287 30.8529 37.112 33.1445 35.237C36.0612 32.9453 37.7279 29.4037 37.7279 25.6537C37.7279 22.3203 36.4779 19.1953 33.9779 16.6953C31.6862 14.4036 28.5612 13.1536 25.2279 13.1536Z" fill="#0CBD68"/>
<path d="M30.4349 44.4036H20.0182C19.3932 44.4036 18.9766 43.987 18.9766 43.362C18.9766 42.737 19.3932 42.3203 20.0182 42.3203H30.4349C31.0599 42.3203 31.4766 42.737 31.4766 43.362C31.4766 43.987 31.0599 44.4036 30.4349 44.4036Z" fill="#0CBD68"/>
<path d="M25.2253 6.90625C24.6003 6.90625 24.1836 6.48958 24.1836 5.86458V1.69792C24.1836 1.07292 24.6003 0.65625 25.2253 0.65625C25.8503 0.65625 26.2669 1.07292 26.2669 1.69792V5.86458C26.2669 6.48958 25.8503 6.90625 25.2253 6.90625Z" fill="#0CBD68"/>
<path d="M39.1849 12.7396C38.9766 12.7396 38.5599 12.7396 38.3516 12.5312C37.9349 12.1146 37.9349 11.4896 38.3516 11.0729L41.2682 8.15625C41.6849 7.73958 42.3099 7.73958 42.7266 8.15625C43.1432 8.57292 43.1432 9.19792 42.7266 9.61458L39.8099 12.5312C39.8099 12.5312 39.3932 12.7396 39.1849 12.7396Z" fill="#0CBD68"/>
<path d="M49.1849 26.7005H45.0182C44.3932 26.7005 43.9766 26.2839 43.9766 25.6589C43.9766 25.0339 44.3932 24.6172 45.0182 24.6172H49.1849C49.8099 24.6172 50.2266 25.0339 50.2266 25.6589C50.2266 26.2839 49.8099 26.7005 49.1849 26.7005Z" fill="#0CBD68"/>
<path d="M42.1016 43.5755C41.8932 43.5755 41.4766 43.5755 41.2682 43.3672L38.3516 40.4505C37.9349 40.0339 37.9349 39.4089 38.3516 38.9922C38.7682 38.5755 39.3932 38.5755 39.8099 38.9922L42.7266 41.9088C43.1432 42.3255 43.1432 42.9505 42.7266 43.3672C42.7266 43.5755 42.5182 43.5755 42.1016 43.5755Z" fill="#0CBD68"/>
<path d="M8.35286 43.5755C8.14453 43.5755 7.72786 43.5755 7.51953 43.3672C7.10286 42.9505 7.10286 42.3255 7.51953 41.9088L10.4362 38.9922C10.8529 38.5755 11.4779 38.5755 11.8945 38.9922C12.3112 39.4089 12.3112 40.0339 11.8945 40.4505L8.97786 43.3672C8.76953 43.5755 8.5612 43.5755 8.35286 43.5755Z" fill="#0CBD68"/>
<path d="M5.4349 26.7005H1.26823C0.643229 26.7005 0.226562 26.2839 0.226562 25.6589C0.226562 25.0339 0.643229 24.6172 1.26823 24.6172H5.4349C6.0599 24.6172 6.47656 25.0339 6.47656 25.6589C6.47656 26.2839 6.0599 26.7005 5.4349 26.7005Z" fill="#0CBD68"/>
<path d="M11.2695 12.737C11.0612 12.737 10.6445 12.737 10.4362 12.5286L7.51953 9.40364C7.10286 8.98698 7.10286 8.36198 7.51953 7.94531C7.9362 7.52865 8.5612 7.52865 8.97786 7.94531L11.8945 10.862C12.3112 11.2786 12.3112 11.9036 11.8945 12.3203C11.6862 12.5286 11.4779 12.737 11.2695 12.737Z" fill="#0CBD68"/>
<path d="M33.5586 26.6979C32.9336 26.6979 32.5169 26.2812 32.5169 25.6562C32.5169 21.6979 29.1836 18.3646 25.2253 18.3646C24.6003 18.3646 24.1836 17.9479 24.1836 17.3229C24.1836 16.6979 24.6003 16.2812 25.2253 16.2812C30.4336 16.2812 34.6003 20.4479 34.6003 25.6562C34.6003 26.2812 34.1836 26.6979 33.5586 26.6979Z" fill="#0CBD68"/>
</g>
<defs>
<clipPath id="clip0_1002_32274">
<rect width="50" height="50" fill="white" transform="translate(0.226562 0.65625)"/>
</clipPath>
</defs>
</svg>
