<svg width="51" height="54" viewBox="0 0 51 54" fill="none" xmlns="http://www.w3.org/2000/svg">
<g clip-path="url(#clip0_1002_32250)">
<path d="M42.019 30.9416L49.2234 22.3669C49.831 21.6416 50.1323 20.6842 50.0564 19.7175C49.982 18.7512 49.5334 17.8605 48.8175 17.2577C47.3788 16.0872 45.3271 16.3168 44.1511 17.7804L38.7036 24.2632L30.6144 16.6269C29.9274 15.9784 28.8743 16.0427 28.2621 16.7709L2.31028 47.6594C1.07598 49.066 1.09734 51.2505 2.35872 52.63C2.98006 53.2879 3.82263 53.6562 4.70067 53.6538H4.81014C5.72327 53.621 6.58415 53.1941 7.19291 52.472L29.9144 25.4284L36.1374 31.3026C37.8569 32.9211 40.4876 32.7594 42.019 30.9416ZM37.2454 29.9829L31.0229 24.1087C30.6914 23.7998 30.2585 23.6409 29.8179 23.6672C29.3766 23.6931 28.9632 23.9053 28.6706 24.2563L5.94908 51.2954C5.64622 51.6593 5.21483 51.8736 4.7575 51.8873C4.30055 51.895 3.85925 51.7106 3.53008 51.3751C2.91102 50.6517 2.9217 49.5447 3.55449 48.8348L29.5063 17.9466L37.5952 25.5828C38.2825 26.2313 39.3353 26.1671 39.9475 25.4389L45.3961 18.9549C45.9881 18.2062 47.024 18.0675 47.7736 18.6364C48.1313 18.9388 48.356 19.3839 48.3949 19.8675C48.4342 20.3506 48.2835 20.8301 47.9791 21.1924L40.7752 29.7666C39.8555 30.8575 38.2772 30.9541 37.2454 29.9829Z" fill="#0CBD68"/>
<path d="M16.8457 13.087L22.4458 18.3742C23.1331 19.0223 24.1859 18.9576 24.798 18.2294L27.0145 15.5913C27.6267 14.8627 27.5661 13.746 26.8787 13.0967L19.4119 6.04792C17.6936 4.42582 15.0602 4.58754 13.53 6.40897L6.32521 14.9836C5.7176 15.7089 5.41666 16.6663 5.4918 17.6331C5.5677 18.6002 6.01855 19.4909 6.73677 20.0929C7.31349 20.5813 8.03019 20.8453 8.76825 20.8421C9.77636 20.8356 10.7341 20.3731 11.4005 19.5709L16.8457 13.087ZM7.77578 18.7142C7.41762 18.4118 7.19296 17.9666 7.15405 17.4831C7.11515 16.9995 7.26543 16.5204 7.56981 16.1581L14.7742 7.5839C15.214 7.05708 15.8342 6.73929 16.4963 6.70047C16.5463 6.70047 16.5955 6.69522 16.6447 6.69522C17.2573 6.69401 17.8481 6.93376 18.3035 7.36718L25.7711 14.4139L23.5546 17.0521L17.9545 11.7649C17.2672 11.1168 16.2144 11.1815 15.6023 11.9096L10.1528 18.3964C9.55971 19.1428 8.52528 19.281 7.77578 18.7142Z" fill="#0CBD68"/>
<path d="M25.8395 52.6343C26.4609 53.2921 27.3042 53.6605 28.1826 53.658H28.291C29.2045 53.6257 30.0661 53.1992 30.6756 52.4771L37.8796 43.9028C39.4103 42.081 39.2577 39.2892 37.539 37.6671L30.0707 30.6164C29.74 30.3067 29.3071 30.1478 28.8665 30.1748C28.4245 30.2003 28.0106 30.413 27.7177 30.7647L25.5012 33.4021C24.889 34.1306 24.9501 35.2477 25.6378 35.8963L31.2371 41.1798L25.7884 47.6637C24.5564 49.0715 24.5785 51.2552 25.8395 52.6343ZM27.0361 48.8366L32.487 42.3543C33.0988 41.6262 33.0378 40.5098 32.3512 39.8609L26.7477 34.575L28.9642 31.9376L36.4306 38.9876C37.4612 39.9608 37.5527 41.6355 36.6347 42.7279L29.4307 51.3025C29.1274 51.6656 28.6957 51.8791 28.2383 51.8924C27.7795 51.9147 27.3332 51.7283 27.0117 51.3802C26.3922 50.6564 26.4025 49.5486 27.0361 48.8383V48.8366Z" fill="#0CBD68"/>
<path d="M31.747 14.5441C33.1152 15.8428 34.8877 16.5592 36.7243 16.5564C36.8715 16.5564 37.0199 16.5507 37.1683 16.5422C40.7399 16.3223 43.6678 13.4589 44.1613 9.70289C44.6549 5.94684 42.5765 2.34443 39.1974 1.09834C35.8184 -0.147346 32.0797 1.3102 30.2675 4.58027C28.4557 7.85034 29.0752 12.0216 31.747 14.5433V14.5441ZM32.3787 4.49577C34.5212 1.94577 38.208 1.71936 40.6137 3.99038C43.0193 6.26139 43.2326 10.1695 41.0901 12.7195C38.948 15.2695 35.2611 15.4955 32.8555 13.2244C31.6978 12.1356 30.9968 10.6029 30.9075 8.96502C30.8179 7.32716 31.3473 5.71881 32.3787 4.49577Z" fill="#0CBD68"/>
<path d="M0.0742188 24.508C0.0742188 24.996 0.447253 25.3914 0.907252 25.3914H7.57305C8.03343 25.3914 8.40646 24.996 8.40646 24.508C8.40646 24.0204 8.03343 23.625 7.57305 23.625H0.907252C0.447253 23.625 0.0742188 24.0204 0.0742188 24.508Z" fill="#0CBD68"/>
<path d="M3.40625 28.0393C3.40625 28.5273 3.77928 28.9227 4.23928 28.9227H10.9051C11.3655 28.9227 11.7385 28.5273 11.7385 28.0393C11.7385 27.5517 11.3655 27.1562 10.9051 27.1562H4.23928C3.77928 27.1562 3.40625 27.5517 3.40625 28.0393Z" fill="#0CBD68"/>
</g>
<defs>
<clipPath id="clip0_1002_32250">
<rect width="50" height="53" fill="white" transform="translate(0.0664062 0.65625)"/>
</clipPath>
</defs>
</svg>
