<svg width="53" height="53" viewBox="0 0 53 53" fill="none" xmlns="http://www.w3.org/2000/svg">
<g clip-path="url(#clip0_1002_32185)">
<path d="M35.207 0.65625C34.6462 0.65625 34.1914 1.11105 34.1914 1.67188V6.34375C34.1914 6.90458 34.6462 7.35938 35.207 7.35938C35.7679 7.35938 36.2227 6.90458 36.2227 6.34375V1.67188C36.2227 1.11105 35.7679 0.65625 35.207 0.65625Z" fill="#0CBD68"/>
<path d="M11.8477 32.3438C11.287 32.3438 10.832 32.7988 10.832 33.3594C10.832 33.92 11.287 34.375 11.8477 34.375C12.4083 34.375 12.8633 33.92 12.8633 33.3594C12.8633 32.7988 12.4083 32.3438 11.8477 32.3438Z" fill="#0CBD68"/>
<path d="M49.4258 30.3125C49.4258 28.0724 47.6033 26.25 45.3633 26.25H37.7814C38.9552 23.2434 39.4303 19.7046 39.3387 16.5544C39.3212 15.9533 39.2982 15.6056 39.267 15.3868C39.2145 13.1923 37.4126 11.4219 35.207 11.4219C32.967 11.4219 31.1445 13.2443 31.1445 15.4844V16.5C31.1445 22.9234 22.8962 26.5324 16.6715 28.0801C16.2008 27.0041 15.1265 26.25 13.8789 26.25H3.72266C3.16183 26.25 2.70703 26.7048 2.70703 27.2656V51.6406C2.70703 52.2015 3.16183 52.6562 3.72266 52.6562H13.8789C15.1182 52.6562 16.1863 51.9121 16.6618 50.8475C17.1772 50.9798 17.6557 51.1047 18.0974 51.2201C21.6435 52.1462 23.5968 52.6562 28.3475 52.6562H39.2695C41.5096 52.6562 43.332 50.8338 43.332 48.5938C43.332 47.7585 43.0784 46.9815 42.6445 46.3352C44.2134 45.7865 45.3633 44.2874 45.3633 42.5C45.3633 41.6678 45.1159 40.8883 44.6832 40.239C46.2452 39.6894 47.3945 38.1938 47.3945 36.4062C47.3945 35.571 47.1409 34.794 46.707 34.1477C48.2759 33.599 49.4258 32.0999 49.4258 30.3125ZM14.8945 49.6094C14.8945 50.1694 14.4389 50.625 13.8789 50.625H4.73828V28.2812H13.8789C14.4389 28.2812 14.8945 28.7369 14.8945 29.2969V49.6094ZM45.3633 32.3438C43.1849 32.3438 42.6656 32.3438 40.2852 32.3438C39.7243 32.3438 39.2695 32.7985 39.2695 33.3594C39.2695 33.9202 39.7243 34.375 40.2852 34.375H43.332C44.4521 34.375 45.3633 35.2862 45.3633 36.4062C45.3633 37.5281 44.4539 38.4375 43.332 38.4375H38.2539C37.6931 38.4375 37.2383 38.8923 37.2383 39.4531C37.2383 40.014 37.6931 40.4688 38.2539 40.4688H41.3008C42.4075 40.4688 43.332 41.3529 43.332 42.5C43.332 43.6219 42.4226 44.5312 41.3008 44.5312C39.1224 44.5312 38.6031 44.5312 36.2227 44.5312C35.6618 44.5312 35.207 44.986 35.207 45.5469C35.207 46.1077 35.6618 46.5625 36.2227 46.5625H39.2695C40.3896 46.5625 41.3008 47.4737 41.3008 48.5938C41.3008 49.7138 40.3896 50.625 39.2695 50.625H28.3475C23.8577 50.625 22.1041 50.1671 18.6107 49.2547C18.0989 49.1211 17.5376 48.9745 16.9258 48.8185V30.1119C24.2757 28.3612 33.1758 24.0878 33.1758 16.5V15.4844C33.1758 14.3643 34.087 13.4531 35.207 13.4531C36.325 13.4531 37.2361 14.3629 37.2383 15.4812V15.4844C37.2383 15.9258 37.7892 21.3428 35.5802 26.25H32.1602C31.5993 26.25 31.1445 26.7048 31.1445 27.2656C31.1445 27.8265 31.5993 28.2812 32.1602 28.2812C32.8694 28.2812 44.2057 28.2812 45.3633 28.2812C46.4833 28.2812 47.3945 29.1925 47.3945 30.3125C47.3945 31.4344 46.4851 32.3438 45.3633 32.3438Z" fill="#0CBD68"/>
<path d="M11.8477 36.4062C11.2868 36.4062 10.832 36.861 10.832 37.4219V45.5469C10.832 46.1077 11.2868 46.5625 11.8477 46.5625C12.4085 46.5625 12.8633 46.1077 12.8633 45.5469V37.4219C12.8633 36.861 12.4085 36.4062 11.8477 36.4062Z" fill="#0CBD68"/>
<path d="M27.082 13.4531H23.0195C22.4587 13.4531 22.0039 13.9079 22.0039 14.4688C22.0039 15.0296 22.4587 15.4844 23.0195 15.4844H27.082C27.6429 15.4844 28.0977 15.0296 28.0977 14.4688C28.0977 13.9079 27.6429 13.4531 27.082 13.4531Z" fill="#0CBD68"/>
<path d="M47.3945 13.4531H43.332C42.7712 13.4531 42.3164 13.9079 42.3164 14.4688C42.3164 15.0296 42.7712 15.4844 43.332 15.4844H47.3945C47.9554 15.4844 48.4102 15.0296 48.4102 14.4688C48.4102 13.9079 47.9554 13.4531 47.3945 13.4531Z" fill="#0CBD68"/>
<path d="M44.5434 5.13331C44.1467 4.73681 43.5039 4.73681 43.107 5.13331L40.235 8.0054C39.8383 8.402 39.8383 9.04509 40.235 9.4418C40.6318 9.8384 41.2745 9.8383 41.6714 9.4418L44.5434 6.56971C44.9401 6.17311 44.9401 5.53002 44.5434 5.13331Z" fill="#0CBD68"/>
<path d="M30.1802 8.0054L27.3081 5.13331C26.9114 4.73681 26.2685 4.73681 25.8717 5.13331C25.4751 5.52991 25.4751 6.17301 25.8717 6.56971L28.7438 9.4418C29.1407 9.8384 29.7835 9.8383 30.1802 9.4418C30.5768 9.0452 30.5768 8.4021 30.1802 8.0054Z" fill="#0CBD68"/>
</g>
<defs>
<clipPath id="clip0_1002_32185">
<rect width="52" height="52" fill="white" transform="translate(0.0664062 0.65625)"/>
</clipPath>
</defs>
</svg>
