<svg width="63" height="62" viewBox="0 0 63 62" fill="none" xmlns="http://www.w3.org/2000/svg">
<g clip-path="url(#clip0_1002_32262)">
<path d="M62.0645 31.1632C62.0645 19.3984 51.4167 9.30979 36.7465 7.17491C36.0849 7.07936 35.4668 7.529 35.3687 8.18118C35.2708 8.83335 35.7286 9.44025 36.3915 9.53676C49.8614 11.497 59.6379 20.5923 59.6379 31.1633C59.6379 34.5771 58.6459 37.8518 56.6897 40.8964C56.5669 41.0873 56.5019 41.3086 56.5019 41.5343L56.5039 50.3452L51.45 47.4764C51.0407 47.2442 50.5317 47.2667 50.1454 47.5341C44.8941 51.1701 38.1177 53.1724 31.0646 53.1724C15.3091 53.1724 2.49117 43.2991 2.49117 31.1633C2.49117 20.5776 12.2839 11.4801 25.7762 9.53116C26.4393 9.43549 26.8977 8.82906 26.8004 8.17677C26.7031 7.52435 26.0859 7.07329 25.4238 7.16908C10.7294 9.29133 0.0644531 19.3823 0.0644531 31.1632C0.0644531 37.7333 3.32623 43.8924 9.24893 48.506C15.0883 53.0545 22.8359 55.5597 31.0645 55.5597C38.3301 55.5597 45.3395 53.5618 50.8988 49.9196L57.1115 53.4463C57.4867 53.6592 57.9493 53.659 58.3248 53.4459C58.7001 53.2324 58.9313 52.8383 58.9312 52.4119L58.9285 41.8749C61.0096 38.5262 62.0645 34.9241 62.0645 31.1632Z" fill="#0CBD68"/>
<path d="M10.5161 23.1328C9.84608 23.1328 9.30273 23.6673 9.30273 24.3266V36.1929C9.30273 36.7744 9.72862 37.2712 10.3111 37.3695C10.3973 37.3841 13.3806 37.377 14.7498 37.3695C15.4199 37.3658 15.96 36.8454 15.9563 36.1862C15.9526 35.5292 15.4101 34.9991 14.7431 34.9991C14.7408 34.9991 14.7385 34.9991 14.7362 34.9991C13.6821 35.0049 12.5466 35.0089 11.7293 35.0091V24.3266C11.7295 23.6674 11.1861 23.1328 10.5161 23.1328Z" fill="#0CBD68"/>
<path d="M34.5417 37.3695C34.5417 37.3695 37.6112 37.377 38.9804 37.3695C39.6505 37.3658 40.1906 36.8454 40.1869 36.1862C40.1832 35.5291 39.6407 34.9991 38.9737 34.9991C38.9714 34.9991 38.9691 34.9991 38.9668 34.9991C37.9127 35.0049 36.7772 35.0089 35.9599 35.0091V24.3266C35.9599 23.6674 35.4167 23.1328 34.7466 23.1328C34.0764 23.1328 33.5332 23.6673 33.5332 24.3266V36.1929C33.5333 36.7744 33.9592 37.2713 34.5417 37.3695Z" fill="#0CBD68"/>
<path d="M16.6504 30.6396C16.6504 34.5722 19.9021 37.7714 23.8992 37.7714C27.8962 37.7714 31.148 34.5722 31.148 30.6396C31.148 26.7071 27.8962 23.5078 23.8992 23.5078C19.9021 23.5078 16.6504 26.7071 16.6504 30.6396ZM28.7214 30.6396C28.7214 33.2557 26.5582 35.384 23.8992 35.384C21.2402 35.384 19.077 33.2557 19.077 30.6396C19.077 28.0236 21.2402 25.8953 23.8992 25.8953C26.5582 25.8953 28.7214 28.0236 28.7214 30.6396Z" fill="#0CBD68"/>
<path d="M51.5465 21.7172C51.5465 21.058 51.0033 20.5234 50.3331 20.5234H45.3403C44.6703 20.5234 44.127 21.0579 44.127 21.7172V31.8767C44.127 32.5359 44.6702 33.0705 45.3403 33.0705H50.3331C51.0031 33.0705 51.5465 32.536 51.5465 31.8767V21.7172ZM49.1199 30.6829H46.5537V22.9109H49.1199V30.6829Z" fill="#0CBD68"/>
<path d="M47.8372 34.6406C45.8302 34.6406 44.1973 36.2471 44.1973 38.2219C44.1973 40.1965 45.8301 41.8031 47.8372 41.8031C49.8443 41.8031 51.4772 40.1966 51.4772 38.2219C51.4771 36.2471 49.8442 34.6406 47.8372 34.6406ZM47.8372 39.4155C47.1683 39.4155 46.6239 38.88 46.6239 38.2218C46.6239 37.5636 47.1682 37.028 47.8372 37.028C48.5061 37.028 49.0506 37.5635 49.0506 38.2218C49.0505 38.88 48.5061 39.4155 47.8372 39.4155Z" fill="#0CBD68"/>
<path d="M30.9744 9.13457C31.6428 9.18056 32.2226 8.6847 32.2694 8.02704C32.3161 7.36939 31.8121 6.79895 31.1437 6.75296C30.4753 6.70697 29.8955 7.20283 29.8487 7.86049C29.802 8.51814 30.306 9.08859 30.9744 9.13457Z" fill="#0CBD68"/>
</g>
<defs>
<clipPath id="clip0_1002_32262">
<rect width="62" height="61" fill="white" transform="translate(0.0644531 0.65625)"/>
</clipPath>
</defs>
</svg>
