<svg width="40" height="56" viewBox="0 0 40 56" fill="none" xmlns="http://www.w3.org/2000/svg">
<path d="M38.6581 0.65625H14.0488C11.39 0.65625 9.16827 2.52925 8.67991 5.00242C3.95088 5.47518 0.376953 9.29412 0.376953 14.0839V22.1407C0.376953 24.8521 2.4332 27.1006 5.09461 27.4611C6.05229 31.8258 8.94448 35.492 12.8427 37.5481C8.24821 38.3625 4.75183 42.319 4.75183 47.0625V54.582C4.75183 55.1752 5.2415 55.6563 5.84557 55.6563H34.283C34.887 55.6563 35.3767 55.1752 35.3767 54.582V47.0625C35.3767 42.3189 31.8802 38.3624 27.2856 37.5481C32.0976 35.01 35.3767 30.0185 35.3767 24.289V12.1942C38.0397 10.1267 39.7517 6.92676 39.7517 3.34179V1.73046C39.7518 1.13728 39.2621 0.65625 38.6581 0.65625V0.65625ZM17.8769 39.175C19.3 39.3785 20.8288 39.3785 22.2519 39.1749V40.4022C22.1416 43.2492 17.9862 43.247 17.8769 40.4022V39.175ZM33.1893 47.0625V53.5078H29.9081V50.8223C29.8543 49.3985 27.774 49.3996 27.7206 50.8223V53.5078H12.4082V50.8223C12.3543 49.3985 10.2739 49.3996 10.2207 50.8223V53.5078H6.93943V47.0625C6.93943 42.9163 10.374 39.543 14.5957 39.543H15.6894V40.4022C15.9101 46.0962 24.2207 46.0919 24.4394 40.4022V39.543H25.5331C29.7548 39.543 33.1893 42.9163 33.1893 47.0625ZM33.1893 24.289C32.5274 41.3709 7.59524 41.3579 6.93943 24.289V18.8099C9.07902 18.3817 10.7685 16.7223 11.2046 14.621H28.2675C30.0276 14.621 31.6968 14.2299 33.1893 13.5319V24.289ZM37.5643 3.34179C37.5643 8.37652 33.3939 12.4726 28.2675 12.4726H10.2207C9.61659 12.4726 9.12692 12.9536 9.12692 13.5468C9.12692 15.3238 7.65496 16.7695 5.84568 16.7695C5.24161 16.7695 4.75194 17.2505 4.75194 17.8437V24.289C4.75194 24.591 4.76102 24.8906 4.77906 25.1884C3.49183 24.7526 2.56445 23.551 2.56445 22.1407V14.0839C2.56445 10.1686 5.6872 7.10154 9.6738 7.10154C10.2779 7.10154 10.7675 6.6205 10.7675 6.02732C10.7675 4.25036 12.2395 2.80468 14.0488 2.80468H37.5643V3.34179Z" fill="#0CBD68"/>
<path d="M15.5215 24.3553C15.9487 24.7749 16.6412 24.7748 17.0683 24.3552C17.4954 23.9357 17.4954 23.2557 17.0683 22.8361C15.6535 21.3879 13.1083 21.388 11.6934 22.8361C11.2663 23.2556 11.2662 23.9356 11.6934 24.3552C12.1205 24.7748 12.8131 24.7748 13.2402 24.3553C13.8408 23.7406 14.921 23.7406 15.5215 24.3553Z" fill="#0CBD68"/>
<path d="M23.0606 22.8361C22.6335 23.2556 22.6334 23.9356 23.0606 24.3552C23.4877 24.7748 24.1803 24.7748 24.6074 24.3553C25.208 23.7407 26.2883 23.7407 26.8887 24.3553C27.3158 24.7749 28.0084 24.7748 28.4355 24.3552C28.8626 23.9357 28.8626 23.2557 28.4355 22.8361C27.0205 21.3879 24.4755 21.388 23.0606 22.8361Z" fill="#0CBD68"/>
<path d="M25.5332 26.9766H14.5957C13.9916 26.9766 13.502 27.4576 13.502 28.0508C13.8323 36.5904 26.2987 36.5863 26.627 28.0507C26.627 27.4576 26.1373 26.9766 25.5332 26.9766ZM20.0645 32.3475C18.0296 32.3475 16.3147 30.9761 15.8279 29.125H24.3011C23.8142 30.9761 22.0994 32.3475 20.0645 32.3475Z" fill="#0CBD68"/>
</svg>
