<svg width="52" height="52" viewBox="0 0 52 52" fill="none" xmlns="http://www.w3.org/2000/svg">
<g clip-path="url(#clip0_1002_32224)">
<path d="M29.5508 45.6797C29.0009 45.6797 28.5547 46.1259 28.5547 46.6758C28.5547 47.2256 29.0009 47.6719 29.5508 47.6719C30.1006 47.6719 30.5469 47.2256 30.5469 46.6758C30.5469 46.1259 30.1006 45.6797 29.5508 45.6797Z" fill="#0CBD68"/>
<path d="M43.4961 5.23828H40.5078V3.64453C40.5078 1.99679 39.1673 0.65625 37.5195 0.65625H13.6133C11.9655 0.65625 10.625 1.99679 10.625 3.64453V5.23828H7.63672C5.98898 5.23828 4.64844 6.57882 4.64844 8.22656C4.64844 14.7068 7.68075 19.4692 12.6001 20.7951C14.2864 24.507 16.9528 27.6625 20.3371 29.9427C21.1167 30.4679 21.582 31.3671 21.582 32.348V37.8363C20.8992 38.0115 20.2728 38.3665 19.7611 38.8783C19.0083 39.6311 18.5938 40.6315 18.5938 41.6953H17.5977C15.9499 41.6953 14.6094 43.0359 14.6094 44.6836V50.6602C14.6094 51.2103 15.0554 51.6562 15.6055 51.6562H35.5273C36.0774 51.6562 36.5234 51.2103 36.5234 50.6602V44.6836C36.5234 43.0359 35.1829 41.6953 33.5352 41.6953H32.5391C32.5391 39.8422 31.2673 38.2804 29.5508 37.837V32.3529C29.5508 31.3689 30.0165 30.468 30.7967 29.9428C34.1813 27.6624 36.8477 24.5068 38.534 20.7948C43.4526 19.4684 46.4844 14.7064 46.4844 8.22656C46.4844 6.57882 45.1438 5.23828 43.4961 5.23828ZM6.64062 8.22656C6.64062 7.67732 7.08747 7.23047 7.63672 7.23047H10.625V11.683C10.625 13.9536 10.969 16.1771 11.648 18.3184C8.47812 16.7482 6.64062 13.122 6.64062 8.22656ZM33.5352 43.6875C34.0844 43.6875 34.5312 44.1343 34.5312 44.6836V49.6641H16.6016V44.6836C16.6016 44.1343 17.0484 43.6875 17.5977 43.6875H33.5352ZM38.5156 11.683C38.5156 14.4039 37.9739 17.0516 36.9053 19.5521C35.3853 23.1099 32.8881 26.1315 29.6839 28.2904C28.3531 29.1862 27.5586 30.7049 27.5586 32.3529V38.707C27.5586 39.2572 28.0046 39.7031 28.5547 39.7031C29.6532 39.7031 30.5469 40.5968 30.5469 41.6953H20.5859C20.5859 41.1636 20.7933 40.6635 21.1697 40.2869C21.5277 39.9289 21.9976 39.7239 22.5 39.7046C22.5258 39.7066 22.5518 39.7076 22.578 39.7076C23.1281 39.7076 23.5741 39.2572 23.5741 38.707V32.348C23.5741 30.7034 22.7801 29.1867 21.4502 28.2906C18.2457 26.1316 15.7485 23.11 14.2283 19.5519C13.1593 17.0523 12.6172 14.4047 12.6172 11.683V3.64453C12.6172 3.09529 13.064 2.64844 13.6133 2.64844H37.5195C38.0688 2.64844 38.5156 3.09529 38.5156 3.64453V11.683ZM39.4852 18.3182C40.164 16.1764 40.5078 13.953 40.5078 11.683V7.23047H43.4961C44.0453 7.23047 44.4922 7.67732 44.4922 8.22656C44.4922 13.1217 42.6549 16.7478 39.4852 18.3182Z" fill="#0CBD68"/>
<path d="M33.4492 12.4253C33.3321 12.0646 33.0203 11.8018 32.645 11.7474L28.3463 11.1234L26.4235 7.2272C26.2557 6.88713 25.9094 6.67188 25.5302 6.67188C25.151 6.67188 24.8048 6.88713 24.6369 7.2272L22.7142 11.1234L18.4155 11.7474C18.0402 11.8019 17.7285 12.0647 17.6113 12.4253C17.4941 12.786 17.5918 13.1818 17.8634 13.4465L20.9746 16.4786L20.2403 20.7605C20.1762 21.1343 20.3298 21.5119 20.6366 21.7348C20.9434 21.9576 21.3501 21.987 21.6856 21.8106L25.5303 19.7892L29.3759 21.8106C29.7136 21.9881 30.1201 21.9562 30.4249 21.7347C30.7316 21.5118 30.8852 21.1341 30.8211 20.7603L30.0859 16.4785L33.197 13.4465C33.4687 13.1818 33.5663 12.786 33.4492 12.4253ZM28.3204 15.4174C28.0856 15.6463 27.9783 15.9761 28.0339 16.2993L28.5161 19.108L25.9937 17.7821C25.7033 17.6296 25.3567 17.6296 25.0667 17.7822L22.5451 19.108L23.0268 16.2991C23.0822 15.9759 22.975 15.6462 22.7403 15.4174L20.6999 13.4288L23.5189 13.0196C23.8434 12.9725 24.1239 12.7687 24.2691 12.4746L25.5303 9.91874L26.7916 12.4746C26.9367 12.7687 27.2172 12.9725 27.5417 13.0196L30.3609 13.4288L28.3204 15.4174Z" fill="#0CBD68"/>
<path d="M25.5664 45.6797H21.582C21.032 45.6797 20.5859 46.1256 20.5859 46.6758C20.5859 47.2259 21.032 47.6719 21.582 47.6719H25.5664C26.1164 47.6719 26.5625 47.2259 26.5625 46.6758C26.5625 46.1256 26.1164 45.6797 25.5664 45.6797Z" fill="#0CBD68"/>
<path d="M40.9062 48.6692H41.4616C41.1787 48.6131 40.9884 48.6075 40.9062 48.6692Z" fill="#0CBD68"/>
</g>
<defs>
<clipPath id="clip0_1002_32224">
<rect width="51" height="51" fill="white" transform="translate(0.0664062 0.65625)"/>
</clipPath>
</defs>
</svg>
