<svg width="64" height="57" viewBox="0 0 64 57" fill="none" xmlns="http://www.w3.org/2000/svg">
<path d="M21.9823 7.94293C22.0335 8.05297 22.1065 8.15184 22.197 8.23372C22.2875 8.3156 22.3938 8.37886 22.5095 8.41976C22.6253 8.46066 22.7481 8.4784 22.8709 8.47191C22.9937 8.46543 23.1139 8.43486 23.2245 8.382C23.3352 8.32915 23.4339 8.25507 23.515 8.16412C23.5962 8.07317 23.658 7.96719 23.6969 7.85239C23.7358 7.7376 23.751 7.61631 23.7416 7.49565C23.7322 7.37499 23.6984 7.25739 23.6422 7.14977L21.3166 2.4368C21.2096 2.22017 21.0195 2.05427 20.7882 1.97558C20.5568 1.89689 20.3032 1.91187 20.0831 2.01721C19.863 2.12255 19.6944 2.30963 19.6144 2.53729C19.5345 2.76495 19.5497 3.01455 19.6567 3.23117L21.9823 7.94293ZM31.5627 6.63875C31.8075 6.63875 32.0422 6.54307 32.2153 6.37275C32.3884 6.20242 32.4856 5.97142 32.4856 5.73055V1.01758C32.4856 0.776708 32.3884 0.545703 32.2153 0.375381C32.0422 0.20506 31.8075 0.109375 31.5627 0.109375C31.318 0.109375 31.0833 0.20506 30.9102 0.375381C30.7371 0.545703 30.6399 0.776708 30.6399 1.01758V5.73055C30.6399 5.97142 30.7371 6.20242 30.9102 6.37275C31.0833 6.54307 31.318 6.63875 31.5627 6.63875ZM39.9102 8.36313C40.0191 8.41512 40.1372 8.4455 40.258 8.45252C40.3787 8.45955 40.4997 8.44307 40.614 8.40405C40.7283 8.36502 40.8336 8.30421 40.924 8.22509C41.0144 8.14596 41.088 8.05009 41.1407 7.94293L43.4663 3.23117C43.5193 3.12391 43.5503 3.00743 43.5576 2.88837C43.5648 2.76932 43.5482 2.65002 43.5086 2.53729C43.469 2.42456 43.4072 2.32061 43.3268 2.23138C43.2464 2.14214 43.1489 2.06937 43.0399 2.01721C42.9309 1.96505 42.8126 1.93453 42.6916 1.92738C42.5706 1.92024 42.4494 1.93662 42.3349 1.97558C42.2203 2.01454 42.1147 2.07533 42.024 2.15446C41.9333 2.2336 41.8594 2.32954 41.8064 2.4368L39.4808 7.14977C39.4278 7.25715 39.3969 7.37377 39.3899 7.49293C39.3828 7.61209 39.3997 7.73146 39.4396 7.84418C39.4795 7.95691 39.5416 8.06078 39.6223 8.14983C39.7031 8.23888 39.8009 8.31136 39.9102 8.36313ZM49.8967 11.4534C50.0218 11.5143 50.1595 11.5458 50.2991 11.5455C50.4725 11.5458 50.6425 11.4978 50.7894 11.4072C50.9364 11.3166 51.0543 11.187 51.1297 11.0332L52.418 8.42488C52.471 8.31762 52.502 8.20114 52.5092 8.08208C52.5165 7.96303 52.4998 7.84373 52.4603 7.731C52.4207 7.61828 52.3589 7.51433 52.2785 7.42509C52.1981 7.33586 52.1006 7.26308 51.9916 7.21092C51.8826 7.15876 51.7642 7.12824 51.6433 7.1211C51.5223 7.11395 51.4011 7.13033 51.2865 7.16929C51.172 7.20826 51.0664 7.26904 50.9757 7.34818C50.885 7.42731 50.8111 7.52325 50.7581 7.63051L49.4697 10.2401C49.4167 10.3473 49.3857 10.4638 49.3784 10.5829C49.3712 10.7019 49.3878 10.8212 49.4275 10.9339C49.4672 11.0466 49.529 11.1505 49.6095 11.2397C49.69 11.3288 49.7876 11.4015 49.8967 11.4534ZM52.9975 46.3745L52.979 46.3527L50.3791 43.4464C49.3537 42.297 48.0575 41.4127 46.6041 40.871C45.1507 40.3292 43.5844 40.1466 42.0426 40.3392L34.2821 41.3079C33.449 41.4157 32.5742 40.7945 32.4942 39.9613C32.4643 39.6643 32.5257 39.3652 32.6705 39.1029C32.8153 38.8406 33.0368 38.6271 33.3063 38.4901L40.4886 34.9287C42.1483 34.0898 43.4351 32.6776 44.1022 30.9628C44.7693 29.248 44.7698 27.3511 44.1037 25.6359L43.6213 24.3947C43.2983 23.5646 42.8003 22.8111 42.1601 22.184C41.5199 21.5569 40.752 21.0702 39.907 20.7561C39.062 20.442 38.1589 20.3075 37.2573 20.3615C36.3557 20.4155 35.4759 20.6568 34.6758 21.0695C34.3505 21.2383 33.9733 21.283 33.6165 21.195C33.2598 21.1069 32.9486 20.8923 32.7428 20.5924C32.6277 20.4268 32.5487 20.2395 32.5108 20.0423C32.4729 19.8451 32.4769 19.6424 32.5225 19.4468C32.6862 18.7336 33.4281 18.3861 34.0286 18.0397C36.0233 16.888 38.3855 16.5174 40.6453 17.0019C42.905 17.4863 44.8966 18.7902 46.2238 20.6541C46.3643 20.8515 46.5787 20.9858 46.8198 21.0276C47.0609 21.0694 47.3091 21.0152 47.5096 20.877C47.7102 20.7387 47.8467 20.5277 47.8891 20.2904C47.9316 20.0531 47.8765 19.8089 47.736 19.6115C46.7113 18.1765 45.3506 17.0052 43.769 16.1967C42.3305 15.4587 40.7438 15.0434 39.1229 14.9806C37.502 14.9178 35.887 15.209 34.394 15.8334C34.3269 15.5307 34.3586 15.2149 34.4848 14.9311C34.611 14.6473 34.8252 14.41 35.0966 14.2531C38.0805 12.5433 41.7412 12.0044 44.7952 13.5593C46.1121 14.2323 47.2449 15.2076 48.0978 16.4025L53.2288 23.6113C53.2983 23.709 53.3867 23.7923 53.4889 23.8564C53.5911 23.9205 53.7051 23.9642 53.8244 23.9849C53.9438 24.0057 54.0661 24.0031 54.1844 23.9773C54.3028 23.9515 54.4148 23.9031 54.5141 23.8347C54.6134 23.7663 54.698 23.6793 54.7631 23.5788C54.8283 23.4782 54.8727 23.366 54.8937 23.2485C54.9148 23.1311 54.9122 23.0107 54.886 22.8942C54.8598 22.7778 54.8106 22.6676 54.7411 22.5699L49.6088 15.3611C48.5853 13.9254 47.2249 12.754 45.643 11.9463C41.9147 10.0451 37.7508 10.6143 34.164 12.6862C33.4838 13.0782 32.9668 13.6947 32.7046 14.4262C32.4424 15.1578 32.452 15.957 32.7317 16.6823C32.3029 16.8989 31.909 17.1768 31.5627 17.5069C31.2186 17.1744 30.8243 16.8962 30.3938 16.6823C30.6735 15.957 30.6831 15.1578 30.4209 14.4262C30.1587 13.6947 29.6417 13.0782 28.9615 12.6862L28.1556 12.2188C25.7607 10.8347 22.924 10.3893 20.2104 10.9712C17.4969 11.5531 15.1056 13.1196 13.513 15.3587L0.230078 34.0217C0.0991825 34.2191 0.0514026 34.4589 0.0968357 34.6903C0.142269 34.9217 0.277355 35.1267 0.473547 35.2619C0.669739 35.3971 0.911665 35.452 1.1482 35.4149C1.38473 35.3778 1.59734 35.2516 1.74109 35.0631L15.0302 16.4001C16.3579 14.5369 18.3495 13.2335 20.6089 12.7491C22.8684 12.2647 25.2304 12.6348 27.2253 13.7857C27.923 14.1877 28.9578 14.8477 28.7339 15.831C27.2409 15.2066 25.626 14.9153 24.005 14.9782C22.3841 15.041 20.7974 15.4563 19.3589 16.1943C17.7773 17.0028 16.4167 18.1741 15.3919 19.6091C15.3224 19.7068 15.273 19.8171 15.2468 19.9336C15.2205 20.05 15.2178 20.1705 15.2388 20.288C15.2598 20.4055 15.3042 20.5178 15.3693 20.6184C15.4344 20.719 15.519 20.8061 15.6183 20.8745C15.7176 20.943 15.8296 20.9915 15.948 21.0174C16.0664 21.0432 16.1887 21.0459 16.3081 21.0252C16.4275 21.0045 16.5416 20.9609 16.6439 20.8968C16.7462 20.8327 16.8346 20.7494 16.9042 20.6517C18.2318 18.7876 20.224 17.4837 22.4843 16.9997C24.7445 16.5157 27.1071 16.887 29.1018 18.0397L29.9065 18.5035C30.243 18.6977 30.4889 19.0138 30.5915 19.3842C30.6941 19.7546 30.6453 20.1498 30.4555 20.4852C30.2657 20.8206 29.9501 21.0696 29.5761 21.1788C29.2021 21.288 28.7995 21.2488 28.4546 21.0695C27.6543 20.656 26.7741 20.414 25.8719 20.3596C24.9697 20.3051 24.066 20.4394 23.2204 20.7536C22.3748 21.0677 21.6064 21.5547 20.9658 22.1823C20.3253 22.8099 19.8271 23.5639 19.5041 24.3947L19.023 25.6347C18.3567 27.3513 18.3579 29.2495 19.0264 30.9652C19.695 32.6809 20.9838 34.0932 22.6455 34.9311L29.813 38.4864C30.0843 38.6225 30.3076 38.836 30.4538 39.0988C30.6 39.3617 30.6623 39.6619 30.6325 39.9601C30.5538 40.7896 29.6727 41.4133 28.8446 41.3067L24.426 40.7545C24.3059 40.7395 24.1839 40.7479 24.0671 40.7792C23.9502 40.8106 23.8408 40.8643 23.7451 40.9373C23.6493 41.0103 23.5691 41.1011 23.509 41.2046C23.4489 41.3081 23.4102 41.4222 23.3949 41.5404C23.3796 41.6586 23.3882 41.7787 23.42 41.8937C23.4519 42.0086 23.5065 42.1163 23.5806 42.2106C23.6548 42.3048 23.7471 42.3837 23.8522 42.4428C23.9574 42.502 24.0733 42.5401 24.1935 42.5552L28.6096 43.1086C29.15 43.1712 29.6979 43.11 30.2102 42.9295C30.7225 42.749 31.1855 42.4543 31.5627 42.0684C31.9398 42.4546 32.4027 42.7495 32.9151 42.93C33.4275 43.1105 33.9754 43.1716 34.5159 43.1086L42.2764 42.1398C43.5188 41.9853 44.7806 42.1327 45.9516 42.5693C47.1227 43.0059 48.1671 43.7182 48.9936 44.644L51.5849 47.5503L58.9493 56.3381C59.0253 56.4332 59.1199 56.5125 59.2275 56.5712C59.335 56.6299 59.4535 56.6668 59.5758 56.6798C59.6981 56.6928 59.8218 56.6816 59.9396 56.6469C60.0575 56.6122 60.1671 56.5546 60.262 56.4776C60.3569 56.4006 60.4352 56.3057 60.4923 56.1984C60.5494 56.0912 60.5841 55.9738 60.5945 55.8532C60.6048 55.7326 60.5905 55.6111 60.5525 55.496C60.5144 55.3809 60.4534 55.2744 60.3729 55.1828L52.9975 46.3745ZM31.5627 37.5395C31.2996 37.2668 30.9918 37.0396 30.6522 36.8674L23.4847 33.3121C22.2288 32.6776 21.255 31.6092 20.75 30.3118C20.2451 29.0144 20.2444 27.5792 20.7481 26.2814L21.2268 25.0426C21.4568 24.4521 21.8112 23.9163 22.2667 23.4703C22.7222 23.0242 23.2684 22.6782 23.8696 22.4548C24.4707 22.2314 25.1131 22.1357 25.7544 22.1742C26.3958 22.2126 27.0216 22.3842 27.5908 22.6776C28.2335 23.0102 28.9689 23.1275 29.6854 23.0117C30.402 22.8959 31.0606 22.5533 31.5615 22.0358C32.0624 22.5533 32.721 22.8959 33.4376 23.0117C34.1541 23.1275 34.8895 23.0102 35.5322 22.6776C36.1015 22.3837 36.7276 22.2118 37.3692 22.1732C38.0108 22.1346 38.6535 22.2301 39.255 22.4535C39.8564 22.6769 40.4029 23.0231 40.8586 23.4694C41.3142 23.9156 41.6687 24.4518 41.8987 25.0426L42.3798 26.2814C42.8823 27.5775 42.8818 29.0104 42.3783 30.3061C41.8748 31.6018 40.9037 32.6694 39.6506 33.3048L32.4684 36.8674C32.1302 37.0397 31.8241 37.2669 31.5627 37.5395ZM62.8966 34.0217L56.7357 25.3659C56.5952 25.1686 56.3808 25.0342 56.1396 24.9924C55.8985 24.9506 55.6504 25.0048 55.4498 25.1431C55.2493 25.2814 55.1128 25.4923 55.0703 25.7297C55.0279 25.967 55.0829 26.2112 55.2234 26.4085L61.3856 35.0631C61.4532 35.1651 61.541 35.2526 61.6437 35.3206C61.7464 35.3885 61.8619 35.4354 61.9834 35.4585C62.1049 35.4816 62.2299 35.4804 62.3509 35.455C62.4719 35.4296 62.5865 35.3805 62.6879 35.3107C62.7892 35.2408 62.8753 35.1516 62.9409 35.0484C63.0065 34.9452 63.0503 34.83 63.0698 34.7097C63.0893 34.5895 63.084 34.4666 63.0542 34.3484C63.0245 34.2302 62.9709 34.1191 62.8966 34.0217ZM21.0828 40.3343C19.5412 40.142 17.9752 40.3247 16.522 40.8664C15.0689 41.4081 13.7729 42.2924 12.7476 43.4416L10.1526 46.3527L10.1341 46.3745L2.755 55.1744C2.67454 55.2659 2.6135 55.3724 2.57546 55.4875C2.53742 55.6026 2.52315 55.7241 2.53349 55.8447C2.54383 55.9654 2.57857 56.0827 2.63566 56.19C2.69276 56.2972 2.77107 56.3921 2.86598 56.4691C2.96089 56.5461 3.07048 56.6037 3.18832 56.6384C3.30616 56.6731 3.42986 56.6843 3.55216 56.6713C3.67446 56.6583 3.79289 56.6214 3.90047 56.5627C4.00806 56.504 4.10264 56.4248 4.17865 56.3296L11.543 47.5418L14.1344 44.6356C14.962 43.7097 16.0076 42.9977 17.1798 42.562C18.3519 42.1262 19.6148 41.98 20.8577 42.1362C20.9788 42.1531 21.1022 42.1461 21.2206 42.1156C21.3389 42.0852 21.45 42.0319 21.5472 41.9588C21.6445 41.8857 21.726 41.7943 21.787 41.6899C21.848 41.5856 21.8874 41.4703 21.9027 41.3508C21.918 41.2313 21.9091 41.1101 21.8764 40.994C21.8436 40.878 21.7878 40.7695 21.712 40.6749C21.6363 40.5803 21.5422 40.5015 21.4353 40.443C21.3283 40.3846 21.2106 40.3476 21.089 40.3343H21.0828ZM11.9983 11.0332C12.0736 11.187 12.1916 11.3166 12.3385 11.4072C12.4855 11.4978 12.6554 11.5458 12.8288 11.5455C12.9684 11.5458 13.1061 11.5143 13.2312 11.4534C13.4509 11.3485 13.6192 11.162 13.6993 10.9349C13.7793 10.7079 13.7646 10.4588 13.6582 10.2425L12.3674 7.63051C12.3144 7.52325 12.2405 7.42731 12.1498 7.34818C12.0591 7.26904 11.9535 7.20826 11.839 7.16929C11.7244 7.13033 11.6032 7.11395 11.4822 7.1211C11.3612 7.12824 11.2429 7.15876 11.1339 7.21092C11.0249 7.26308 10.9274 7.33586 10.847 7.42509C10.7666 7.51433 10.7048 7.61828 10.6652 7.731C10.5853 7.95867 10.6005 8.20826 10.7075 8.42488L11.9983 11.0332Z" fill="#0CBD68"/>
</svg>
