<svg width="43" height="58" viewBox="0 0 43 58" fill="none" xmlns="http://www.w3.org/2000/svg">
<path d="M25.2817 17.4648C25.4655 16.1747 25.3819 14.8607 25.0362 13.6044C24.6905 12.348 24.09 11.1762 23.2721 10.1619C22.4541 9.14751 21.4363 8.31225 20.2818 7.70803C19.1273 7.10382 17.8609 6.74357 16.5612 6.64969C15.2616 6.55581 13.9565 6.7303 12.7272 7.16231C11.4978 7.59433 10.3705 8.27463 9.4153 9.16091C8.4601 10.0472 7.69743 11.1205 7.17474 12.3141C6.65204 13.5077 6.38048 14.7961 6.37695 16.0991C6.37695 17.2273 6.43633 18.4741 7.64756 18.4741C7.81969 18.4761 7.99019 18.4406 8.14724 18.3701C8.30429 18.2996 8.44413 18.1958 8.55709 18.0659C8.67004 17.936 8.75341 17.7831 8.8014 17.6178C8.8494 17.4525 8.86087 17.2787 8.83504 17.1085C8.69107 16.0981 8.76585 15.0686 9.0543 14.0896C9.34276 13.1107 9.83817 12.2051 10.507 11.4342C11.1758 10.6633 12.0025 10.0451 12.9309 9.62144C13.8594 9.19777 14.8681 8.97851 15.8887 8.97851C16.9093 8.97851 17.918 9.19777 18.8464 9.62144C19.7749 10.0451 20.6016 10.6633 21.2704 11.4342C21.9392 12.2051 22.4346 13.1107 22.7231 14.0896C23.0115 15.0686 23.0863 16.0981 22.9423 17.1085C22.9228 17.4053 23.0153 17.6986 23.2017 17.9304C23.388 18.1622 23.6545 18.3157 23.9485 18.3605C24.2425 18.4052 24.5426 18.338 24.7895 18.1722C25.0364 18.0063 25.212 17.7539 25.2817 17.4648Z" fill="#0CBD68" stroke="#303948" stroke-width="0.5"/>
<path d="M15.8767 3.03392C17.8702 3.03405 19.8372 3.49044 21.6271 4.36814C23.4169 5.24584 24.9821 6.52155 26.2028 8.09757C27.4235 9.67359 28.2673 11.5081 28.6696 13.4606C29.0718 15.413 29.0218 17.4317 28.5235 19.3618C28.4447 19.6673 28.4906 19.9916 28.6509 20.2633C28.8113 20.535 29.073 20.7318 29.3784 20.8106C29.6839 20.8893 30.0082 20.8434 30.2799 20.6831C30.5516 20.5228 30.7484 20.2611 30.8272 19.9556C31.4139 17.675 31.4711 15.2903 30.9944 12.9842C30.5178 10.6781 29.5198 8.51159 28.0769 6.65052C26.6341 4.78945 24.7845 3.28314 22.6699 2.24688C20.5553 1.21062 18.2316 0.671875 15.8767 0.671875C13.5219 0.671875 11.1982 1.21062 9.08358 2.24688C6.96897 3.28314 5.11945 4.78945 3.67658 6.65052C2.23371 8.51159 1.23575 10.6781 0.759051 12.9842C0.282356 15.2903 0.339573 17.675 0.926322 19.9556C1.00506 20.2611 1.20192 20.5228 1.47361 20.6831C1.60814 20.7625 1.75699 20.8146 1.91166 20.8365C2.06633 20.8584 2.22379 20.8495 2.37505 20.8106C2.52632 20.7716 2.66842 20.7032 2.79325 20.6093C2.91808 20.5154 3.0232 20.3978 3.10259 20.2633C3.18198 20.1287 3.2341 19.9799 3.25597 19.8252C3.27784 19.6706 3.26903 19.5131 3.23004 19.3618C2.73167 17.4317 2.68169 15.413 3.08393 13.4606C3.48617 11.5081 4.32996 9.67359 5.55065 8.09757C6.77135 6.52155 8.33657 5.24584 10.1264 4.36814C11.9163 3.49044 13.8833 3.03405 15.8767 3.03392Z" fill="#0CBD68" stroke="#303948" stroke-width="0.5"/>
<path d="M34.8765 28.6438C34.7856 27.8359 34.4889 27.0649 34.0148 26.4046C33.5406 25.7442 32.9049 25.2166 32.1685 24.8722C31.4321 24.5279 30.6196 24.3783 29.8089 24.4378C28.9981 24.4972 28.2162 24.7638 27.5379 25.212C27.3058 24.5474 26.929 23.9427 26.4346 23.4416C25.9402 22.9405 25.3406 22.5556 24.6792 22.3147C24.0178 22.0738 23.3111 21.9829 22.6102 22.0485C21.9094 22.1142 21.2319 22.3349 20.6267 22.6945V17.4814C20.6666 16.5363 20.4234 15.6009 19.9283 14.7949C19.4331 13.9889 18.7086 13.3491 17.8475 12.9574C16.9865 12.5658 16.0281 12.4402 15.0952 12.5967C14.1623 12.7532 13.2973 13.1847 12.6112 13.8359C10.64 15.7002 11.1269 16.6027 11.1269 30.3419C7.92065 27.9669 4.00195 29.3919 4.00195 32.7169V42.2167C4.00195 46.311 5.62838 50.2375 8.52343 53.1326C11.4185 56.0276 15.345 57.654 19.4392 57.654H26.5642C30.6584 57.654 34.5849 56.0276 37.48 53.1326C40.375 50.2375 42.0014 46.311 42.0014 42.2167V32.9187C42.0305 32.0714 41.8323 31.2316 41.4273 30.4867C41.0222 29.7418 40.4252 29.1189 39.6981 28.6827C38.9711 28.2465 38.1405 28.0128 37.2926 28.006C36.4448 27.9991 35.6105 28.2194 34.8765 28.6438ZM39.6265 42.2167C39.6265 43.9321 39.2886 45.6307 38.6322 47.2155C37.9757 48.8003 37.0136 50.2403 35.8006 51.4532C34.5877 52.6662 33.1477 53.6283 31.5629 54.2848C29.9781 54.9412 28.2795 55.2791 26.5642 55.2791H19.4392C15.9749 55.2791 12.6525 53.9029 10.2028 51.4532C7.75313 49.0036 6.37692 45.6811 6.37692 42.2167V32.7169C6.37692 31.0544 8.75189 31.2563 10.0462 32.5269C11.3406 33.7975 11.1269 34.9256 11.1269 42.2167C11.1269 42.5317 11.252 42.8337 11.4747 43.0564C11.6974 43.2791 11.9994 43.4042 12.3143 43.4042C12.6293 43.4042 12.9313 43.2791 13.154 43.0564C13.3767 42.8337 13.5018 42.5317 13.5018 42.2167V17.2796C13.5013 16.9564 13.5668 16.6365 13.6943 16.3395C13.8217 16.0425 14.0084 15.7746 14.243 15.5523C14.4775 15.33 14.755 15.1578 15.0584 15.0465C15.3618 14.9351 15.6847 14.8868 16.0074 14.9046C16.636 14.9757 17.2151 15.2797 17.6306 15.7567C18.046 16.2337 18.2676 16.8491 18.2518 17.4814V35.0918C18.2518 35.4068 18.3769 35.7088 18.5996 35.9315C18.8223 36.1542 19.1243 36.2793 19.4392 36.2793C19.7542 36.2793 20.0562 36.1542 20.2789 35.9315C20.5016 35.7088 20.6267 35.4068 20.6267 35.0918V26.7794C20.6267 26.1496 20.877 25.5455 21.3223 25.1001C21.7677 24.6547 22.3718 24.4045 23.0017 24.4045C23.6316 24.4045 24.2357 24.6547 24.6811 25.1001C25.1264 25.5455 25.3767 26.1496 25.3767 26.7794V35.0918C25.3767 35.4068 25.5018 35.7088 25.7245 35.9315C25.9472 36.1542 26.2492 36.2793 26.5642 36.2793C26.8791 36.2793 27.1811 36.1542 27.4038 35.9315C27.6265 35.7088 27.7516 35.4068 27.7516 35.0918V29.1544C27.7516 28.5245 28.0019 27.9205 28.4473 27.4751C28.8926 27.0297 29.4967 26.7794 30.1266 26.7794C30.7565 26.7794 31.3606 27.0297 31.806 27.4751C32.2514 27.9205 32.5016 28.5245 32.5016 29.1544V35.0918C32.5016 35.4068 32.6267 35.7088 32.8494 35.9315C33.0721 36.1542 33.3741 36.2793 33.6891 36.2793C34.004 36.2793 34.306 36.1542 34.5287 35.9315C34.7514 35.7088 34.8765 35.4068 34.8765 35.0918C34.8765 32.515 34.7222 31.8381 35.6128 30.995C35.9614 30.6589 36.4045 30.4374 36.8826 30.3602C37.3607 30.283 37.8509 30.3538 38.2877 30.5631C38.7244 30.7724 39.0867 31.1102 39.326 31.5313C39.5653 31.9523 39.6701 32.4364 39.6265 32.9187V42.2167Z" fill="#0CBD68" stroke="#303948" stroke-width="0.5"/>
</svg>
